<svg width="45" height="44" viewBox="0 0 45 44" fill="none" xmlns="http://www.w3.org/2000/svg">
<rect x="0.5" width="44" height="44" rx="22" fill="black"/>
<g clip-path="url(#clip0_1_88)">
<path d="M22.5 12.625C19.9313 12.5441 17.4354 13.4859 15.5605 15.2437C13.6856 17.0014 12.5848 19.4314 12.5 22C12.5848 24.5686 13.6856 26.9986 15.5605 28.7563C17.4354 30.514 19.9313 31.4559 22.5 31.375C25.0687 31.4559 27.5646 30.514 29.4395 28.7563C31.3144 26.9986 32.4152 24.5686 32.5 22C32.4152 19.4314 31.3144 17.0014 29.4395 15.2437C27.5646 13.4859 25.0687 12.5441 22.5 12.625ZM30.8875 21.125L29.35 20.75C29.0375 20.6625 29.0125 20.6375 28.9875 20.6C28.8 20.35 28.5875 20.0125 28.3875 19.6875C28.3875 19.575 28.225 19.4 28.1875 19.3C28.15 19.2 28.625 18.55 28.825 18.25C29.0406 18.0258 29.2893 17.8361 29.5625 17.6875C30.2893 18.702 30.7454 19.8851 30.8875 21.125ZM22.5 14.1875L22.3875 14.4C22.3763 14.3591 22.3763 14.3159 22.3875 14.275C22.3875 14.35 22.2 14.4625 22.075 14.5875L21.7 14.95C21.529 15.1283 21.4254 15.3606 21.4072 15.607C21.3889 15.8534 21.4571 16.0984 21.6 16.3H21.45C21.2526 16.3057 21.0591 16.3559 20.8837 16.4468C20.7084 16.5377 20.5559 16.6669 20.4375 16.825C20.2993 17.0155 20.2052 17.2343 20.1619 17.4656C20.1187 17.6969 20.1274 17.935 20.1875 18.1625V18.25C20.0052 18.2825 19.8255 18.3284 19.65 18.3875L19.35 18.4875L18.55 18.75C18.3116 18.8198 18.0943 18.9477 17.9176 19.1223C17.7409 19.2968 17.6103 19.5125 17.5375 19.75C17.4794 19.9493 17.4718 20.1599 17.5154 20.3629C17.5591 20.5658 17.6526 20.7547 17.7875 20.9125C18.2881 21.4536 18.8701 21.9133 19.5125 22.275C20.1412 22.6939 20.8535 22.9711 21.6 23.0875H23.7C23.9529 23.0754 24.2047 23.1275 24.432 23.239C24.6593 23.3505 24.8547 23.5177 25 23.725C25.068 23.7951 25.1182 23.8805 25.1465 23.974C25.1747 24.0675 25.1802 24.1664 25.1625 24.2625C25.1376 24.4217 25.0731 24.5722 24.975 24.7C24.353 25.2087 23.9321 25.922 23.7875 26.7125C23.6256 27.3 23.4251 27.8763 23.1875 28.4375C23.0375 28.825 22.9 29.2 22.8 29.5C22.3807 29.5302 21.9592 29.4964 21.55 29.4C21.6496 28.4713 21.4291 27.5363 20.925 26.75C20.5046 26.2533 20.2704 25.6257 20.2625 24.975C20.3433 24.3577 20.2031 23.7318 19.8669 23.2079C19.5306 22.6841 19.0198 22.296 18.425 22.1125C17.0256 21.2427 15.797 20.1243 14.8 18.8125C15.5224 17.3985 16.6269 16.2155 17.988 15.3979C19.3492 14.5803 20.9124 14.161 22.5 14.1875ZM14.0625 22C14.0623 21.5128 14.1125 21.0268 14.2125 20.55C15.2386 21.7782 16.485 22.8041 17.8875 23.575C18.6375 23.85 18.75 24.1375 18.75 24.975C18.7528 26.0198 19.1348 27.0281 19.825 27.8125C20.0093 28.3547 20.0692 28.9315 20 29.5C18.3294 29.0655 16.846 28.0983 15.7746 26.7449C14.7031 25.3915 14.1021 23.7257 14.0625 22ZM24.4625 29.6C24.4625 29.4125 24.6125 29.2 24.6875 29C24.9717 28.3535 25.2016 27.6845 25.375 27C25.4729 26.576 25.7107 26.1974 26.05 25.925C26.4874 25.495 26.7426 24.9131 26.7625 24.3C26.7778 24.0093 26.7336 23.7186 26.6326 23.4456C26.5316 23.1726 26.3759 22.9232 26.175 22.7125C25.8743 22.3436 25.4919 22.0499 25.0579 21.8546C24.624 21.6593 24.1505 21.5679 23.675 21.5875H21.6875C20.754 21.3346 19.896 20.8584 19.1875 20.2L19.775 20L20.1125 19.9C20.2611 19.832 20.4244 19.8019 20.5875 19.8125L20.7 20C20.7935 20.1754 20.9491 20.3097 21.1363 20.3768C21.3234 20.4438 21.5289 20.4387 21.7125 20.3625C21.8943 20.2777 22.0383 20.1286 22.1167 19.944C22.1952 19.7594 22.2026 19.5522 22.1375 19.3625V19.1375C22 18.7625 21.8375 18.2375 21.7375 17.8875C22.0617 17.9011 22.3835 17.8256 22.6678 17.6691C22.9521 17.5126 23.188 17.2812 23.35 17C23.4276 16.7905 23.4477 16.5641 23.4081 16.3443C23.3685 16.1245 23.2708 15.9192 23.125 15.75C23.2721 15.618 23.4099 15.476 23.5375 15.325C23.6522 15.1877 23.7362 15.0274 23.7836 14.8549C23.831 14.6823 23.8409 14.5016 23.8125 14.325C25.5597 14.5822 27.1865 15.3673 28.475 16.575C28.0967 16.806 27.7624 17.1023 27.4875 17.45C27.1897 17.8852 26.9224 18.3404 26.6875 18.8125C26.5867 19.1039 26.5613 19.416 26.6137 19.7199C26.6662 20.0237 26.7948 20.3093 26.9875 20.55C27.2125 20.9375 27.4625 21.3125 27.6875 21.625C27.9976 22.0159 28.4442 22.2749 28.9375 22.35C29.2125 22.425 30.1875 22.625 30.875 22.7625C30.654 24.4291 29.9167 25.9846 28.7666 27.2109C27.6166 28.4372 26.1115 29.2726 24.4625 29.6Z" fill="white"/>
</g>
<defs>
<clipPath id="clip0_1_88">
<rect width="20" height="20" fill="white" transform="translate(12.5 12)"/>
</clipPath>
</defs>
</svg>
