<svg width="24" height="24" viewBox="0 0 24 24" fill="none" xmlns="http://www.w3.org/2000/svg">
	<rect width="24" height="24" rx="12"/>
	<path d="M8 10L10.3536 10.6959C11.7256 11.1014 12.2736 11.1014 13.6464 10.6959L16 10" stroke="white" stroke-width="1.5" stroke-linecap="round" stroke-linejoin="round" />
	<path d="M5.01175 13.0416C5.05725 15.2051 5.08035 16.2872 5.87202 17.0884C6.66369 17.8902 7.76544 17.9178 9.96966 17.9735C11.3276 18.0088 12.6729 18.0088 14.0309 17.9735C16.2351 17.9178 17.3369 17.8902 18.1285 17.0884C18.9202 16.2872 18.9433 15.2051 18.9895 13.0416C19.0035 12.3456 19.0035 11.6538 18.9895 10.9578C18.9433 8.79429 18.9202 7.71218 18.1285 6.911C17.3369 6.10913 16.2351 6.0816 14.0309 6.02583C12.6774 5.99139 11.3232 5.99139 9.96966 6.02583C7.76544 6.0816 6.66369 6.10913 5.87202 6.911C5.08035 7.71218 5.05725 8.79429 5.01105 10.9578C4.99632 11.6523 4.99702 12.3471 5.01175 13.0416Z" stroke="white" stroke-width="1.5" stroke-linecap="round" stroke-linejoin="round" />
</svg>