<svg width="45" height="44" viewBox="0 0 45 44" fill="none" xmlns="http://www.w3.org/2000/svg">
<rect x="0.5" width="44" height="44" rx="22" fill="black"/>
<path d="M33.2556 16.3556C32.5808 15.2935 30.7388 15.0791 27.92 15.7182C26.6288 14.788 25.0767 14.2087 23.4415 14.0467C21.8063 13.8846 20.1542 14.1464 18.6744 14.8019C17.1947 15.4575 15.9471 16.4803 15.0748 17.7533C14.2024 19.0262 13.7404 20.4978 13.7418 21.9994C13.7419 22.3695 13.7699 22.7391 13.8257 23.1057C11.788 25.0102 11.0702 26.576 11.7479 27.6432C12.1674 28.3035 13.0529 28.638 14.3449 28.638C15.1301 28.6256 15.9115 28.5354 16.6753 28.369C16.8105 28.3418 16.9475 28.3112 17.0864 28.2839C18.4597 29.2721 20.1255 29.8624 21.8694 29.9787C23.6133 30.0951 25.3554 29.7322 26.8715 28.9368C28.3875 28.1414 29.608 26.9499 30.3758 25.5157C31.1436 24.0815 31.4236 22.4704 31.1797 20.8897C32.3589 19.7834 33.1475 18.735 33.4039 17.8601C33.5698 17.2789 33.5213 16.7734 33.2556 16.3556ZM22.4995 15.0212C24.2497 15.0234 25.9463 15.5731 27.3065 16.5787C28.6666 17.5843 29.6083 18.9851 29.9744 20.5476C28.483 21.8496 26.4192 23.2427 24.0739 24.4724C21.5198 25.8135 19.2173 26.6798 17.3586 27.1564C16.2196 26.2085 15.4211 24.9685 15.0678 23.599C14.7145 22.2295 14.823 20.7945 15.3789 19.4823C15.9348 18.17 16.9122 17.0419 18.1829 16.2457C19.4536 15.4496 20.9583 15.0228 22.4995 15.0212ZM12.7118 27.1309C12.3837 26.6143 12.9271 25.5514 14.11 24.3226C14.4972 25.484 15.1688 26.5496 16.0741 27.4389C14.2424 27.764 13.0278 27.6227 12.7118 27.1309ZM22.4995 28.9775C21.0701 28.9789 19.6693 28.6116 18.4585 27.918C20.3862 27.347 22.519 26.4662 24.6313 25.3582C26.7594 24.2417 28.6517 23.0035 30.1357 21.7917C30.1357 21.8607 30.1413 21.9296 30.1413 21.9994C30.1393 23.8492 29.3336 25.6228 27.901 26.9311C26.4683 28.2393 24.5258 28.9753 22.4995 28.9775ZM32.3198 17.5921C32.1445 18.1878 31.6411 18.9103 30.888 19.6864C30.5013 18.5222 29.8286 17.454 28.9211 16.5632C30.3958 16.3037 31.904 16.2662 32.2881 16.8679C32.399 17.0423 32.4092 17.2866 32.3198 17.5921Z" fill="white"/>
</svg>
